<svg width="18" height="18" viewBox="0 0 18 18" fill="none" xmlns="http://www.w3.org/2000/svg">
<path d="M2.25 3.93752C2.10082 3.93752 1.95774 3.99679 1.85225 4.10228C1.74676 4.20777 1.6875 4.35084 1.6875 4.50002C1.6875 4.64921 1.74676 4.79228 1.85225 4.89777C1.95774 5.00326 2.10082 5.06252 2.25 5.06252H3.49875L4.97475 10.9688C5.10019 11.4694 5.5485 11.8125 6.06431 11.8125H13.0787C13.5866 11.8125 14.0181 11.475 14.1514 10.9856L15.6094 5.62502H14.4315L13.0781 10.6875H6.06375L4.58831 4.78127C4.52736 4.53896 4.38687 4.32412 4.18932 4.17114C3.99177 4.01816 3.7486 3.9359 3.49875 3.93752H2.25ZM12.375 11.8125C11.4497 11.8125 10.6875 12.5747 10.6875 13.5C10.6875 14.4253 11.4497 15.1875 12.375 15.1875C13.3003 15.1875 14.0625 14.4253 14.0625 13.5C14.0625 12.5747 13.3003 11.8125 12.375 11.8125ZM7.3125 11.8125C6.38719 11.8125 5.625 12.5747 5.625 13.5C5.625 14.4253 6.38719 15.1875 7.3125 15.1875C8.23781 15.1875 9 14.4253 9 13.5C9 12.5747 8.23781 11.8125 7.3125 11.8125ZM9 3.93752V6.75002H7.3125L9.5625 9.00002L11.8125 6.75002H10.125V3.93752H9ZM7.3125 12.9375C7.62975 12.9375 7.875 13.1828 7.875 13.5C7.875 13.8173 7.62975 14.0625 7.3125 14.0625C6.99525 14.0625 6.75 13.8173 6.75 13.5C6.75 13.1828 6.99525 12.9375 7.3125 12.9375ZM12.375 12.9375C12.6923 12.9375 12.9375 13.1828 12.9375 13.5C12.9375 13.8173 12.6923 14.0625 12.375 14.0625C12.0577 14.0625 11.8125 13.8173 11.8125 13.5C11.8125 13.1828 12.0577 12.9375 12.375 12.9375Z" fill="#18FF80"/>
</svg>
